HIERARCHY
ROOT Hips
{
	OFFSET -0.179506 -22.333345 2.821913
	CHANNELS 6 Xposition Yposition Zposition Zrotation Yrotation Xrotation 
	JOINT LeftUpLeg
	{
		OFFSET 6.951974 -9.140623 -0.681533
		CHANNELS 3 Zrotation Yrotation Xrotation
		JOINT LeftLeg
		{
			OFFSET 3.427654 -37.519855 -0.449580
			CHANNELS 3 Zrotation Yrotation Xrotation
			JOINT LeftFoot
			{
				OFFSET -1.359570 -39.796059 -4.369333
				CHANNELS 3 Zrotation Yrotation Xrotation
				JOINT LeftToe
				{
					OFFSET 2.635814 -5.579078 11.928840
					CHANNELS 3 Zrotation Yrotation Xrotation
					End Site
					{
						OFFSET 0.000000 0.000000 0.000000
					}
				}
			}
		}
	}
	JOINT RightUpLeg
	{
		OFFSET -6.767048 -9.052170 -0.431982
		CHANNELS 3 Zrotation Yrotation Xrotation
		JOINT RightLeg
		{
			OFFSET -3.829005 -38.256897 -0.885003
			CHANNELS 3 Zrotation Yrotation Xrotation
			JOINT RightFoot
			{
				OFFSET 1.577377 -39.841461 -4.231180
				CHANNELS 3 Zrotation Yrotation Xrotation
				JOINT RightToe
				{
					OFFSET -2.537174 -4.814398 12.334795
					CHANNELS 3 Zrotation Yrotation Xrotation
					End Site
					{
						OFFSET 0.000000 0.000000 0.000000
					}
				}
			}
		}
	}
	JOINT Spine
	{
		OFFSET -0.253288 10.896323 -2.669631
		CHANNELS 3 Zrotation Yrotation Xrotation
		JOINT Spine1
		{
			OFFSET 0.548704 13.518043 0.109247
			CHANNELS 3 Zrotation Yrotation Xrotation
			JOINT Spine2
			{
				OFFSET 0.145701 5.292222 2.542457
				CHANNELS 3 Zrotation Yrotation Xrotation
				JOINT Neck
				{
					OFFSET -0.277840 21.387037 -4.285703
					CHANNELS 3 Zrotation Yrotation Xrotation
					JOINT Head
					{
						OFFSET 0.515184 6.496960 5.134897
						CHANNELS 3 Zrotation Yrotation Xrotation
						End Site
						{
							OFFSET 0.000000 0.000000 0.000000
						}
					}
				}
				JOINT LeftShoulder
				{
					OFFSET 7.884473 12.174932 -3.408961
					CHANNELS 3 Zrotation Yrotation Xrotation
					JOINT LeftArm
					{
						OFFSET 9.097692 3.046888 -0.886815
						CHANNELS 3 Zrotation Yrotation Xrotation
						JOINT LeftForeArm
						{
							OFFSET 25.961220 -1.277207 -2.745643
							CHANNELS 3 Zrotation Yrotation Xrotation
							JOINT LeftHand
							{
								OFFSET 24.923361 0.898606 -0.117091
								CHANNELS 3 Zrotation Yrotation Xrotation
								End Site
								{
									OFFSET 0.000000 0.000000 0.000000
								}
							}
						}
					}
				}
				JOINT RightShoulder
				{
					OFFSET -8.175920 11.883285 -3.861528
					CHANNELS 3 Zrotation Yrotation Xrotation
					JOINT RightArm
					{
						OFFSET -9.601238 3.255117 -0.914307
						CHANNELS 3 Zrotation Yrotation Xrotation
						JOINT RightForeArm
						{
							OFFSET -25.374195 -1.332924 -2.140099
							CHANNELS 3 Zrotation Yrotation Xrotation
							JOINT RightHand
							{
								OFFSET -25.529810 0.777228 -0.555919
								CHANNELS 3 Zrotation Yrotation Xrotation
								End Site
								{
									OFFSET 0.000000 0.000000 0.000000
								}
							}
						}
					}
				}
			}
		}
	}
}
MOTION
Frames: 16
Frame Time: 0.033333
3.654976 -29.001356 36.367508 178.959212 0.656064 61.323616 32.948545 21.519822 -55.768692 -16.169084 20.177124 148.949888 5.302350 -3.113115 -45.316837 nan nan nan -27.647519 -23.117722 -57.973456 7.581654 -12.988851 155.338581 -1.976464 17.927643 -37.895138 nan nan nan 1.896874 -2.239883 74.031720 -1.147003 -2.210502 -2.193621 0.972755 2.209388 -2.335754 -11.360182 -3.598837 -16.525525 12.255891 -5.444942 -14.792872 1.216946 -37.848361 -7.114779 -51.211165 -12.175163 2.585808 130.761764 -85.500432 -103.778263 28.579312 6.901715 -36.991257 -10.197815 41.396889 -9.194779 47.177006 20.406673 -1.361768 45.489230 71.268856 94.481564 -0.039266 -7.847418 37.564084 
3.705282 -29.148434 36.398647 178.883753 0.712421 61.704608 33.051281 21.521642 -55.916913 -15.923716 20.405983 148.933594 5.238766 -3.028728 -45.379860 nan nan nan -27.369983 -23.024663 -58.436701 7.337599 -13.213880 155.363720 -2.033616 17.870096 -37.960733 nan nan nan 1.813270 -2.136029 73.609781 -1.079093 -2.128132 -2.209027 0.987827 2.232565 -2.327922 -11.304146 -3.473377 -16.832317 12.151836 -5.534294 -14.618838 1.033179 -37.985983 -6.935583 -50.967109 -12.387361 2.749986 126.225735 -85.095707 -100.001673 28.652355 6.800897 -37.534974 -9.771058 41.613663 -8.866837 46.667675 20.623485 -1.332726 43.535591 71.061066 91.684119 0.105754 -7.717787 36.672052 
3.767257 -29.318480 36.476654 178.709867 0.769182 61.875329 33.218037 21.568346 -55.819780 -15.914622 20.723997 148.806576 4.976086 -3.696043 -45.291860 nan nan nan -27.302890 -22.633881 -58.481976 7.071949 -13.426575 155.262958 -1.750156 18.286003 -38.114721 nan nan nan 1.704913 -2.101722 73.974577 -1.042738 -2.074614 -2.988026 0.843813 2.255766 -2.073841 -10.868569 -2.574753 -17.884616 11.531985 -6.292014 -13.558320 1.142300 -37.815026 -6.697630 -50.659899 -12.284422 2.786456 109.668162 -86.491462 -81.955558 32.618665 2.887439 -35.204566 -9.574065 41.595154 -8.930549 46.542130 20.997818 -0.983964 41.689990 69.782171 90.949629 -2.152250 -4.437904 38.460051 
3.818104 -29.457960 36.512321 178.622271 0.884002 62.248155 33.168562 21.733209 -56.160109 -16.051070 21.209806 148.719104 5.427439 -4.789736 -45.015516 nan nan nan -26.989139 -22.560196 -58.886914 6.785966 -13.636064 155.280219 -1.871380 18.170732 -38.179203 nan nan nan 1.696969 -2.053025 73.658929 -0.971553 -1.988723 -3.144393 0.844276 2.290413 -2.070293 -10.798792 -2.522045 -18.122808 11.424751 -6.394657 -13.267681 1.007919 -37.927160 -6.561574 -50.654144 -12.475687 2.978877 103.140237 -86.193636 -75.753729 32.935669 2.373941 -35.069436 -9.245090 41.818052 -8.604431 46.170477 21.117081 -0.982291 40.220649 69.414527 88.987250 -1.718242 -4.190181 37.940906 
3.929810 -29.592722 36.639450 178.466299 0.733210 62.382867 32.706633 22.038315 -56.140899 -15.701486 20.352061 148.924007 4.810245 -5.008681 -44.752949 nan nan nan -27.629261 -21.659466 -58.532920 6.217973 -13.858449 155.044682 -1.041079 19.114109 -37.949707 nan nan nan 1.417083 -1.457422 73.664825 -0.730809 -1.275374 -2.826368 1.010884 2.056890 -2.750443 -10.281779 -3.221492 -18.195833 10.509019 -6.102581 -12.862583 0.114338 -38.542794 -5.648097 -49.331788 -12.951233 4.490841 100.602059 -85.414564 -76.733308 37.147936 1.786316 -36.052920 -9.754222 41.923189 -9.371698 46.083712 19.151320 -1.016711 82.789807 82.524795 110.135911 0.437727 6.420990 -7.378153 
3.693889 -29.295965 36.563133 179.582551 1.401276 62.553064 33.134945 20.702535 -57.321191 -15.562401 21.359821 149.868148 3.101241 -7.321943 -42.476264 nan nan nan -31.244237 -21.281228 -55.557216 5.883960 -14.305077 154.512437 1.468264 23.835482 -37.999297 nan nan nan 1.709969 -2.362872 75.961960 0.376032 -2.200971 -8.980449 1.068373 1.820215 -0.896993 -9.638912 -1.268845 -16.344592 8.628375 -6.178395 -12.544393 -1.234716 -36.047632 -4.452638 -49.676932 -13.614236 2.762028 69.649412 -83.377296 -39.190021 25.609208 -10.924093 -26.530949 -9.807546 40.751840 -9.929537 47.878477 20.266689 0.620325 66.553715 81.020312 94.133308 5.415947 10.413336 -10.515415 
3.734627 -29.376970 36.727077 179.461388 1.592013 62.620281 33.458039 20.714272 -57.093785 -15.545597 21.556403 149.759746 3.129238 -7.230765 -42.500140 nan nan nan -30.887976 -21.013410 -55.556481 5.667912 -14.541376 154.355066 1.572129 23.701840 -37.917169 nan nan nan 1.739454 -2.371443 76.134824 0.395366 -2.033556 -9.244890 1.117137 1.848061 -0.888045 -9.552773 -1.151240 -16.654020 8.426204 -6.250228 -12.001442 -1.560265 -35.919014 -4.458965 -49.489939 -13.852786 3.011141 67.135500 -83.148419 -37.377926 26.071108 -11.131243 -25.735125 -9.332814 40.791215 -9.757953 47.550379 20.318462 0.826356 63.457202 80.969654 90.383434 4.546123 10.577896 -10.035076 
3.766732 -29.474991 36.868515 179.357552 1.732171 62.676560 33.782596 20.599798 -56.818573 -15.443716 21.705973 149.668893 3.001195 -7.340848 -42.583774 nan nan nan -30.684897 -20.751600 -55.538166 5.414079 -14.672837 154.245791 1.484291 23.673972 -37.985223 nan nan nan 1.747279 -2.406159 76.220192 0.386609 -1.871153 -9.140634 1.109403 1.867394 -1.179937 -9.514142 -1.062816 -16.852248 8.292283 -6.399052 -11.557616 -1.835821 -36.009723 -4.382460 -49.064481 -13.992859 2.887424 66.573537 -82.975811 -37.379529 20.908165 -12.226428 -26.269446 -8.900430 40.958200 -9.462930 47.105179 20.306256 0.698825 61.524619 80.953344 88.212675 8.720166 10.514486 -10.206146 
3.802450 -29.557766 36.963749 179.296277 1.839743 62.724830 34.013004 20.468652 -56.641507 -15.399664 21.847025 149.562094 2.857641 -7.423477 -42.557640 nan nan nan -30.504636 -20.582183 -55.535525 5.226353 -14.818286 154.175193 1.419388 23.522349 -38.079561 nan nan nan 1.751243 -2.387759 76.291321 0.407933 -1.740085 -9.108639 1.152095 1.867465 -1.323533 -9.534513 -1.014912 -17.068635 8.195903 -6.454451 -11.223776 -1.880616 -36.080589 -4.403384 -48.922830 -14.038019 2.930746 66.462382 -82.768924 -37.649055 19.425608 -12.714660 -26.066482 -8.745592 41.045317 -9.407191 46.791569 20.232743 0.672698 60.451058 80.959929 86.788654 10.395875 10.485541 -10.119003 
3.822745 -29.590485 37.036396 179.271331 1.964700 62.752444 34.514232 20.200942 -56.381459 -15.375358 22.168687 149.360613 2.579545 -7.617853 -42.454066 nan nan nan -30.729578 -20.309903 -55.202168 5.099065 -15.067389 154.049387 1.776532 23.926998 -38.204110 nan nan nan 1.801352 -2.450630 76.518489 0.404606 -1.673655 -9.622540 1.178811 1.873822 -0.965229 -9.501159 -0.818885 -17.208322 8.134324 -6.597943 -11.355638 -1.706851 -35.697216 -4.518133 -49.695268 -14.395699 3.337805 66.019271 -82.446375 -38.032474 19.914918 -13.427090 -25.608410 -8.937251 40.707407 -9.770229 46.951528 20.388680 1.074457 59.143282 80.870448 84.844580 9.209374 10.707632 -9.377873 
3.522861 -29.225840 36.078735 179.697750 -0.140264 62.515688 35.328712 19.272745 -55.464928 -15.080598 25.006910 149.664801 2.265331 -7.792325 -41.947345 nan nan nan -34.761736 -19.998613 -55.698093 6.238148 -15.570610 154.905601 3.676402 25.948205 -38.406409 nan nan nan 1.777342 -1.620308 74.502863 0.172666 -3.219129 -9.120466 0.413930 1.311282 1.610310 -8.248215 2.938481 -17.858169 6.759991 -9.558225 -12.217125 0.500713 -33.511369 -5.265737 -50.626832 -16.866792 2.526122 50.096683 -83.677502 -22.487149 23.059512 -14.084540 -27.886933 -7.958396 38.466400 -8.179875 46.683702 23.160574 3.483150 57.286549 82.122956 83.823166 -28.350769 10.477242 -7.694668 
3.490727 -29.155228 36.039375 179.699992 -0.281549 62.392116 35.199799 19.289240 -55.465398 -15.154991 25.021533 149.693564 2.190689 -7.736091 -41.881481 nan nan nan -34.956416 -19.909051 -55.600409 6.338519 -15.528902 154.886670 3.913790 26.174919 -38.281575 nan nan nan 1.744309 -1.546247 74.786250 0.193141 -3.231191 -9.261244 0.365002 1.292721 1.657933 -8.333047 3.050703 -17.658886 6.735240 -9.725863 -12.418454 0.372677 -33.378685 -5.188363 -50.818474 -16.947825 2.621491 51.082456 -83.681345 -23.461954 23.797746 -13.675983 -28.546363 -7.651309 38.295368 -8.032275 46.461659 23.305529 3.432089 57.803710 81.795930 84.620618 -29.310925 10.314369 -8.195341 
3.444467 -29.091360 36.005852 179.744365 -0.378439 62.245414 35.096387 19.230559 -55.451875 -15.215246 25.034932 149.740235 2.196620 -7.663083 -41.865377 nan nan nan -35.201391 -19.889537 -55.378730 6.438174 -15.551874 154.850627 4.023000 26.229379 -38.224020 nan nan nan 1.763628 -1.516483 75.013858 0.250023 -3.231577 -9.336029 0.323649 1.278353 1.737322 -8.488298 2.883184 -17.561120 6.754754 -9.746584 -12.460135 0.250680 -33.397914 -5.158212 -51.009973 -16.952739 2.669325 52.738357 -83.395572 -24.897896 25.236023 -13.587130 -27.795274 -7.545842 38.238287 -8.102406 46.292174 23.146130 3.291929 59.099106 81.694088 86.043237 -28.801505 10.226381 -8.182206 
3.411573 -29.043249 35.984978 179.815672 -0.473850 62.127716 35.002860 19.139604 -55.424442 -15.230178 25.051522 149.776068 2.105915 -7.594438 -41.889054 nan nan nan -35.419444 -19.888617 -55.178097 6.516629 -15.562768 154.827986 4.101863 26.241895 -38.213632 nan nan nan 1.760582 -1.468976 75.215663 0.315598 -3.268433 -9.458905 0.310028 1.266533 1.874873 -8.586765 2.784591 -17.540018 6.729277 -9.805220 -12.438157 0.143973 -33.395368 -5.171986 -51.051103 -16.977679 2.666051 53.498845 -83.038513 -25.479646 27.036835 -13.921012 -26.628849 -7.438595 38.194690 -8.199941 46.049088 23.001292 3.139615 60.552765 81.562673 87.579566 -28.554032 10.252888 -8.193409 
3.393830 -28.996534 35.972618 179.928233 -0.594398 62.006180 34.821160 19.051951 -55.406468 -15.364743 25.117117 149.796497 2.026435 -7.609419 -41.869785 nan nan nan -35.641022 -19.909937 -54.990466 6.608058 -15.551179 154.815894 4.228855 26.194151 -38.202808 nan nan nan 1.723046 -1.408407 75.458075 0.365214 -3.365910 -9.579655 0.319589 1.239618 1.903184 -8.665553 2.679207 -17.444756 6.762297 -9.742322 -12.416038 0.015294 -33.459694 -5.150445 -50.827080 -16.877202 2.634985 53.897106 -82.988962 -25.919298 28.077885 -14.141716 -25.980779 -7.301124 38.238974 -8.266831 45.889803 22.822469 3.139996 61.256794 81.537718 88.060779 -28.532253 10.352702 -8.014591 
3.389474 -28.937252 35.960148 -179.934229 -0.666379 61.864553 34.690029 19.025257 -55.387969 -15.609501 25.118108 149.825999 2.005659 -7.810387 -41.814493 nan nan nan -35.891254 -19.938387 -54.699558 6.668161 -15.446383 154.805014 4.313494 26.334821 -38.126484 nan nan nan 1.730322 -1.408499 75.647977 0.392306 -3.500922 -9.471687 0.326833 1.201764 1.725623 -8.716594 2.715566 -17.142909 6.838860 -9.721728 -12.632426 -0.252752 -33.439492 -4.991527 -50.276938 -16.870080 2.176515 52.100650 -83.422092 -24.262837 23.305795 -14.929025 -26.785283 -7.025509 38.230323 -8.022053 45.760108 22.873354 3.175371 61.514546 81.721801 88.113876 -27.633738 10.322123 -7.422778 
